<?xml version="1.0" standalone="no"?>
<!DOCTYPE svg PUBLIC "-//W3C//DTD SVG 20010904//EN"
 "http://www.w3.org/TR/2001/REC-SVG-20010904/DTD/svg10.dtd">
<svg version="1.0" xmlns="http://www.w3.org/2000/svg"
 width="1280.000000pt" height="954.000000pt" viewBox="0 0 1280.000000 954.000000"
 preserveAspectRatio="xMidYMid meet">
<g transform="translate(0.000000,954.000000) scale(0.100000,-0.100000)"
fill="#9e9e9e" stroke="none">
<path d="M10107 9525 c-283 -57 -666 -218 -1492 -627 -595 -294 -724 -343
-945 -354 -142 -8 -240 2 -630 66 -722 118 -884 111 -1215 -50 -427 -208
-1018 -721 -1440 -1250 -111 -139 -181 -250 -307 -489 -113 -211 -416 -749
-682 -1205 -63 -109 -129 -232 -146 -271 -32 -78 -74 -237 -85 -321 l-6 -50
88 -41 c48 -23 151 -67 228 -98 77 -31 161 -68 187 -81 129 -65 1407 -825
2083 -1237 951 -581 1411 -884 1498 -988 20 -24 63 -76 96 -115 93 -111 258
-228 410 -290 55 -22 67 -23 104 -13 65 17 173 134 287 312 52 81 149 230 216
330 134 203 180 282 349 607 363 697 525 967 729 1214 129 156 228 303 334
496 213 390 439 937 481 1166 22 116 67 136 448 199 223 37 316 61 398 102 28
14 142 85 255 158 320 206 429 265 680 365 213 85 334 162 445 282 142 153
253 374 310 619 l18 77 -25 44 c-107 181 -748 593 -1683 1081 -301 157 -656
327 -744 357 -69 23 -144 25 -244 5z"/>
<path d="M1660 3985 c-122 -38 -325 -109 -330 -116 -6 -7 -397 -51 -930 -104
-195 -20 -364 -36 -375 -38 -17 -2 -16 -4 8 -20 26 -16 43 -16 474 27 444 44
637 60 618 51 -13 -6 -385 -47 -737 -81 -187 -18 -284 -32 -278 -38 6 -6 141
3 382 27 416 41 556 51 518 38 -22 -8 -22 -9 -5 -11 58 -6 -274 -46 -668 -82
-75 -6 -137 -15 -137 -18 0 -3 20 -16 44 -27 l43 -21 284 29 c299 30 526 45
454 30 -22 -5 -187 -24 -367 -42 -181 -18 -328 -36 -328 -39 0 -3 19 -15 43
-26 l42 -21 270 28 c399 41 468 45 483 27 10 -13 5 -16 -40 -21 -48 -6 -634
-67 -647 -67 -3 0 1 -4 9 -9 9 -5 127 3 292 19 425 43 454 45 472 27 13 -13
10 -15 -32 -21 -38 -5 -621 -65 -641 -66 -3 0 3 -7 13 -15 27 -20 48 -19 391
15 341 34 374 36 401 15 19 -14 19 -14 -1 -15 -44 -1 -667 -68 -671 -72 -2 -3
14 -15 36 -27 l40 -22 307 30 c381 37 469 44 428 31 -34 -10 -594 -70 -656
-70 -21 0 -39 -4 -39 -10 0 -15 25 -13 385 21 308 30 424 33 399 9 -7 -6 -344
-45 -579 -66 -33 -3 -71 -8 -85 -10 l-25 -6 28 -15 c26 -13 61 -11 360 18 245
24 348 30 392 24 l60 -8 -36 -9 c-20 -5 -182 -24 -360 -42 -320 -32 -324 -33
-291 -50 31 -16 46 -15 340 14 169 16 333 32 365 35 37 4 57 2 57 -5 0 -5 12
-10 28 -11 56 -2 -63 -19 -356 -49 -164 -16 -306 -30 -316 -30 -15 0 -17 -3
-9 -11 8 -8 97 -3 330 20 413 40 448 43 442 37 -9 -9 -130 -24 -394 -51 -143
-14 -275 -28 -294 -31 l-33 -5 45 -24 45 -25 289 29 c328 34 497 45 443 32
-36 -10 -448 -55 -603 -67 -48 -4 -87 -10 -87 -13 0 -3 20 -16 43 -27 l43 -22
279 28 c325 33 488 44 435 30 -19 -5 -172 -22 -340 -39 -168 -17 -314 -32
-325 -34 -16 -2 -14 -5 13 -19 32 -16 47 -16 320 12 158 16 330 31 382 34 155
9 43 -9 -240 -39 -140 -14 -286 -29 -325 -33 l-70 -8 48 -25 48 -25 272 27
c303 31 498 44 431 29 -23 -5 -176 -23 -340 -40 -165 -17 -306 -32 -314 -33
-8 -2 6 -14 32 -27 l47 -24 283 28 c156 15 311 30 345 33 63 6 113 -1 113 -16
0 -9 -82 -19 -437 -55 -123 -12 -226 -26 -230 -29 -12 -12 69 -7 372 23 324
33 375 35 375 20 0 -5 8 -11 18 -11 35 -3 -90 -18 -343 -43 -143 -15 -278 -29
-300 -32 l-40 -7 32 -15 c29 -14 59 -12 350 17 175 17 336 31 358 31 38 0 75
-14 65 -24 -3 -2 -145 -19 -315 -36 -171 -17 -321 -34 -335 -36 l-25 -6 28
-15 c26 -13 60 -11 356 18 238 23 343 30 386 24 59 -8 60 -8 25 -17 -19 -5
-179 -24 -355 -42 -179 -18 -312 -36 -303 -41 10 -4 158 7 330 24 172 17 336
31 363 30 l50 -1 -50 -9 c-27 -4 -167 -20 -310 -34 -143 -14 -275 -28 -294
-31 l-34 -6 43 -24 44 -25 300 30 c334 33 402 38 412 28 4 -4 19 -7 33 -8 l26
-1 -25 -7 c-24 -8 -123 -19 -510 -59 l-165 -17 42 -26 42 -25 273 27 c312 31
498 44 430 29 -37 -8 -608 -69 -652 -70 -12 -1 -12 -2 2 -10 11 -7 113 0 315
19 393 39 403 40 409 30 3 -5 17 -9 32 -10 60 -2 -49 -18 -303 -44 -143 -14
-285 -30 -315 -34 l-55 -7 30 -16 c28 -14 51 -13 305 12 321 32 482 43 430 30
-19 -5 -170 -23 -335 -40 -165 -16 -309 -31 -320 -33 -17 -2 -15 -5 11 -20 30
-16 46 -15 330 13 405 40 404 40 404 29 0 -5 15 -9 33 -10 64 -2 -51 -18 -353
-49 -162 -17 -299 -32 -305 -34 -5 -2 11 -14 36 -26 l47 -23 318 32 c345 34
394 36 394 21 0 -5 8 -10 18 -11 9 0 13 -2 7 -4 -11 -5 -447 -51 -573 -61 -45
-4 -85 -11 -88 -15 -8 -14 41 -11 301 15 274 28 476 41 407 26 -34 -7 -602
-69 -647 -70 -5 0 -3 -5 5 -10 10 -5 126 3 305 21 291 29 388 33 435 20 24 -7
23 -8 -10 -14 -19 -3 -123 -16 -230 -27 -107 -11 -243 -25 -302 -31 -59 -6
-106 -15 -103 -19 2 -3 22 -15 44 -25 40 -18 47 -17 308 8 395 39 437 42 429
29 -4 -7 0 -12 11 -13 43 -3 -81 -19 -349 -46 -159 -15 -288 -31 -288 -34 0
-3 12 -11 26 -18 21 -9 91 -5 357 21 307 29 387 31 387 9 0 -9 -64 -17 -440
-56 -127 -13 -208 -25 -197 -29 9 -5 135 4 280 18 375 37 442 42 433 28 -4 -7
0 -12 11 -13 35 -3 -154 -27 -394 -50 -134 -13 -243 -26 -243 -29 0 -3 19 -15
43 -27 l43 -21 279 28 c351 35 446 42 420 31 -11 -5 -137 -21 -280 -35 -143
-15 -289 -31 -325 -35 l-65 -7 31 -16 c28 -15 48 -15 320 12 344 33 448 41
417 29 -13 -5 -167 -23 -343 -41 -176 -18 -320 -35 -320 -38 0 -3 20 -14 43
-26 l42 -21 275 27 c339 34 466 43 425 30 -27 -8 -601 -70 -650 -70 -16 0 -14
-4 11 -19 30 -19 35 -18 320 9 366 35 447 41 411 30 -16 -5 -122 -18 -235 -30
-114 -12 -256 -27 -317 -34 l-110 -11 45 -26 45 -25 265 27 c378 38 433 41
425 29 -4 -6 5 -10 22 -11 61 -2 -45 -18 -297 -43 -140 -14 -275 -29 -300 -32
l-45 -6 32 -16 c29 -13 55 -12 305 12 326 32 449 40 398 27 -19 -5 -170 -23
-334 -41 -165 -17 -301 -32 -303 -34 -2 -1 18 -13 45 -25 l47 -22 255 25 c374
38 435 41 426 28 -4 -8 0 -12 11 -13 49 -2 -32 -13 -319 -43 -177 -19 -305
-36 -295 -41 9 -4 135 5 280 19 311 31 444 41 437 33 -6 -6 -357 -47 -534 -63
-44 -4 -91 -10 -105 -14 -25 -7 -25 -7 17 -29 l43 -22 306 31 c330 32 388 36
378 20 -3 -5 2 -11 12 -11 36 -3 -78 -17 -349 -45 -159 -16 -274 -32 -269 -37
5 -5 155 6 352 25 264 25 343 30 347 20 2 -6 13 -13 25 -13 42 -2 -70 -17
-350 -45 -156 -16 -283 -31 -283 -34 0 -3 12 -11 28 -17 23 -10 72 -8 272 12
373 38 433 41 449 21 10 -12 10 -16 1 -16 -10 0 -561 -56 -615 -63 -15 -2 -7
-9 28 -27 l48 -24 292 28 c371 35 435 39 385 26 -29 -7 -581 -69 -632 -70 -6
0 -4 -5 5 -10 10 -6 100 -1 250 15 129 13 273 26 321 30 94 8 174 0 148 -15
-13 -7 -565 -69 -627 -70 -12 -1 -6 -7 17 -19 34 -17 42 -17 260 5 300 31 440
41 440 32 0 -5 12 -8 28 -9 l27 -1 -25 -8 c-14 -5 -140 -21 -280 -35 -338 -33
-356 -36 -339 -45 8 -5 118 2 244 15 337 34 398 38 446 30 71 -12 26 -21 -253
-50 -139 -14 -275 -29 -303 -34 l-50 -7 46 -23 45 -23 265 25 c319 31 449 40
399 28 -19 -5 -150 -21 -290 -35 -140 -14 -275 -29 -300 -32 l-45 -6 32 -16
c30 -14 55 -13 315 12 416 39 405 39 388 27 -12 -9 -9 -11 14 -11 16 0 27 -2
24 -5 -5 -5 -361 -46 -523 -61 -44 -4 -88 -10 -99 -14 -16 -6 -15 -8 12 -19
27 -11 72 -9 294 13 145 14 301 28 348 31 150 8 23 -11 -260 -40 -293 -29
-319 -33 -302 -44 6 -3 146 7 310 23 212 20 316 26 358 21 54 -7 56 -9 29 -16
-16 -5 -142 -20 -280 -34 -137 -13 -270 -28 -295 -31 l-45 -6 48 -24 47 -24
253 24 c383 38 421 41 413 28 -5 -8 1 -12 16 -13 49 -2 -69 -18 -323 -43 -323
-33 -301 -28 -263 -49 30 -15 45 -15 270 8 388 39 408 40 435 21 18 -12 20
-16 7 -16 -9 0 -122 -11 -250 -24 -128 -14 -264 -28 -302 -32 -48 -5 -64 -9
-53 -16 10 -5 110 1 264 16 136 14 291 28 343 30 161 9 40 -10 -267 -41 -156
-15 -283 -30 -283 -33 0 -3 20 -15 43 -26 l42 -21 285 28 c322 32 368 34 392
15 16 -12 10 -14 -45 -20 -34 -3 -172 -18 -307 -32 -134 -14 -246 -27 -248
-29 -3 -2 16 -14 41 -26 l45 -22 273 27 c344 33 424 39 384 26 -16 -5 -142
-20 -280 -34 -317 -33 -339 -36 -329 -46 5 -4 137 5 294 21 157 15 305 28 330
29 42 0 81 -13 70 -23 -3 -3 -120 -16 -260 -31 -140 -14 -277 -29 -305 -32
l-50 -7 32 -15 c30 -14 57 -13 320 11 374 35 403 37 377 27 -12 -5 -134 -20
-270 -35 -137 -14 -275 -28 -308 -32 -38 -4 -53 -9 -44 -14 9 -5 143 4 309 21
321 32 375 35 384 20 4 -6 11 -8 16 -5 5 4 9 2 9 -3 0 -5 -118 -21 -262 -36
-145 -15 -288 -31 -318 -35 l-55 -7 47 -24 47 -23 283 27 c156 15 452 45 658
66 206 22 435 45 508 51 72 7 132 15 132 19 0 3 -19 15 -42 26 l-43 21 -275
-28 c-264 -26 -502 -44 -451 -32 17 3 20 7 12 13 -18 10 15 16 294 45 132 13
267 27 299 31 39 4 54 9 45 15 -9 4 -118 -3 -250 -16 -296 -30 -414 -38 -374
-25 28 8 307 41 488 56 42 4 77 10 77 13 0 3 -12 12 -28 18 -22 10 -72 8 -272
-12 -273 -27 -323 -30 -300 -15 12 8 12 10 -5 11 -44 2 61 19 251 38 110 12
209 21 220 21 17 1 18 1 2 11 -12 7 -79 3 -215 -11 -109 -11 -220 -19 -248
-19 l-50 1 40 8 c22 5 124 17 228 26 103 10 187 21 187 24 0 3 -20 16 -44 27
-43 21 -47 22 -183 8 -224 -23 -239 -23 -239 -2 0 9 4 17 9 17 15 0 282 31
292 34 6 2 -10 13 -34 25 -39 20 -52 22 -145 16 -55 -3 -112 -8 -124 -11 -13
-3 -21 -1 -18 4 3 5 34 12 68 16 108 12 140 18 128 26 -7 4 -51 5 -99 2 -76
-4 -88 -2 -88 12 0 10 9 16 26 17 14 1 37 4 51 8 l25 7 -32 17 c-18 9 -40 17
-50 17 -16 0 -18 9 -15 97 2 54 1 121 -3 150 l-6 52 -42 4 c-23 3 13 3 81 1
67 -2 122 0 122 4 -1 4 -15 16 -33 27 -38 24 -49 68 -20 80 93 41 353 8 353
-45 0 -25 29 -40 75 -40 53 0 41 19 -36 57 -94 48 -192 67 -339 68 -134 0
-184 -12 -196 -47 -3 -11 -8 -17 -11 -14 -3 3 1 16 9 28 13 21 13 26 -2 53 -9
17 -34 39 -56 50 -22 11 -56 30 -77 42 -20 12 -37 20 -37 18 0 -3 15 -14 33
-25 38 -23 29 -27 -13 -5 -115 59 130 90 270 35 14 -6 33 -24 42 -40 15 -26
23 -30 58 -30 58 0 48 18 -33 58 -105 51 -176 66 -317 67 -103 0 -131 -3 -153
-18 -21 -14 -25 -14 -21 -2 4 8 20 19 38 24 30 9 30 9 -14 11 -25 0 -88 8
-140 15 -95 15 -95 15 -20 9 41 -2 110 -7 153 -11 47 -4 77 -2 77 4 0 5 -38
30 -84 54 -93 48 -92 57 2 58 57 1 66 11 25 30 -19 9 -52 10 -109 6 -65 -6
-87 -4 -113 10 -18 9 -48 15 -69 13 l-37 -3 29 -16 29 -16 -29 -6 c-16 -3 -70
-8 -119 -11 l-90 -5 90 13 c50 7 75 14 58 15 -35 1 -45 17 -15 24 9 2 4 3 -13
1 -16 -2 -84 -6 -150 -8 l-120 -5 105 9 c225 19 315 45 315 90 0 33 -66 66
-175 86 -66 13 -122 15 -250 11 -91 -3 -181 -8 -200 -11 -19 -3 -10 1 20 8 30
8 48 14 39 15 -8 0 -46 17 -85 36 -62 32 -66 35 -39 37 17 1 -31 5 -105 8 -94
5 -46 7 163 6 163 -1 297 2 297 6 0 18 -81 28 -249 29 -102 1 -276 5 -386 9
l-200 6 165 3 c91 2 156 5 145 8 -29 7 -133 59 -179 89 -21 14 -35 21 -31 15
3 -6 19 -18 36 -26 16 -9 29 -22 29 -30 0 -8 -19 3 -45 27 -80 73 -54 94 115
92 133 -2 188 -17 208 -57 16 -33 45 -49 80 -45 46 5 31 31 -38 65 -106 53
-177 68 -330 68 -140 0 -180 -9 -204 -47 -8 -14 -5 -23 19 -48 l29 -30 -47 0
c-25 0 -48 3 -51 8 -2 4 14 6 37 4 l42 -4 -24 26 c-21 22 -23 29 -13 51 6 14
8 24 4 23 -4 -2 -63 25 -131 59 -83 41 -117 63 -105 66 11 3 -19 5 -66 6 -125
1 -162 -13 -100 -39 17 -7 29 -15 26 -17 -7 -7 -66 26 -66 38 0 40 181 38 484
-6 132 -19 241 -33 243 -31 3 2 -44 30 -104 61 -59 32 -118 64 -131 72 -30 18
-208 32 -198 15 4 -7 25 -12 46 -12 27 0 67 -15 129 -47 50 -26 90 -48 88 -49
-1 -1 -23 2 -48 6 -181 34 -422 62 -503 58 -49 -2 -80 -1 -70 3 10 4 55 9 99
10 73 2 75 2 30 8 -27 3 -77 19 -110 36 -59 29 -60 29 -30 36 17 3 -10 4 -60
1 -49 -2 -95 -8 -101 -13 -5 -5 -23 -5 -40 0 -25 7 -19 9 41 15 39 4 155 16
259 27 177 19 193 19 239 4 27 -9 51 -14 54 -12 4 5 -178 107 -191 107 -15 0
-4 -18 16 -27 20 -9 16 -11 -27 -16 -119 -15 -487 -48 -498 -44 -7 2 26 8 73
12 69 6 80 10 59 17 -57 19 -239 116 -227 121 15 5 -28 15 -127 27 l-70 9 80
-4 c70 -3 154 -20 208 -40 29 -12 19 13 -13 30 -16 9 -30 22 -30 30 0 23 76
38 160 32 101 -8 150 -25 169 -59 17 -30 59 -52 88 -46 36 7 17 33 -47 65
-102 50 -187 68 -325 68 -123 0 -165 -10 -165 -40 0 -18 -9 -18 -85 -4 -72 13
-140 4 -166 -22 -10 -10 -19 -15 -19 -9 0 19 48 40 106 48 58 8 58 8 23 15
-21 4 -42 14 -49 22 -8 10 -18 11 -36 4 -14 -5 -42 -8 -62 -8 -34 1 -33 2 13
10 35 5 57 16 73 34 l22 26 83 -15 c98 -19 157 -20 210 -5 159 44 -151 176
-327 139 -52 -11 -68 -22 -91 -67 -1 -2 -33 4 -71 12 -80 17 -165 19 -213 5
-27 -7 -32 -7 -23 2 7 7 47 15 90 18 47 4 60 8 34 8 -41 2 -69 13 -104 41 -10
7 -75 22 -145 31 -200 28 -94 22 180 -9 137 -15 263 -25 280 -22 31 7 30 8
-62 56 l-94 50 71 8 c40 5 72 12 72 15 0 20 -52 28 -129 20 -75 -7 -86 -6
-120 14 -27 15 -45 19 -66 14 l-29 -7 27 -18 c27 -17 27 -17 -90 -29 -65 -6
-152 -14 -193 -16 l-75 -5 80 12 c78 12 79 13 37 19 -24 3 -52 14 -62 23 -15
14 -18 14 -23 1 -5 -12 -22 -14 -99 -9 -75 5 -104 11 -150 35 -32 15 -58 31
-58 33 0 3 26 -8 58 -23 46 -24 75 -30 150 -35 50 -3 92 -2 92 3 0 4 -30 13
-67 20 -43 7 -97 27 -145 53 -43 22 -77 41 -75 41 1 1 155 -1 342 -4 187 -3
342 -5 343 -4 2 1 -7 8 -20 15 -22 12 -90 15 -713 30 l-110 3 105 6 c58 3 84
7 58 8 -27 1 -48 6 -48 12 0 6 -23 7 -57 4 -32 -3 -76 -1 -98 5 -40 10 -39 10
11 5 81 -9 145 5 174 36 l26 28 69 -14 c196 -38 331 4 228 70 -71 45 -139 61
-262 61 l-113 0 -28 -33 -27 -33 -94 17 c-97 16 -180 13 -209 -9 -13 -11 -13
-10 -1 6 7 9 21 17 30 17 14 1 14 2 1 9 -8 5 -59 14 -113 21 -54 6 -115 18
-135 26 -20 8 -26 12 -12 9 113 -25 230 -37 230 -25 0 6 -3 10 -7 10 -5 0 -37
5 -73 10 -81 13 -150 39 -150 56 0 32 154 26 275 -10 27 -9 52 -13 55 -9 3 3
-1 8 -7 10 -7 3 -23 13 -35 23 -21 17 -22 20 -7 35 51 52 329 10 329 -50 0
-16 52 -38 77 -33 30 6 20 31 -22 55 -84 46 -211 75 -335 77 -125 1 -180 -12
-180 -44 0 -16 -5 -17 -37 -9 -62 14 -187 11 -209 -5 -17 -13 -17 -17 -5 -38
12 -22 12 -22 -4 -6 -23 22 -13 45 27 64 20 9 24 13 11 11 -14 -3 -52 10 -95
31 -62 31 -69 38 -48 41 14 2 -39 12 -118 22 -79 11 -151 24 -160 30 -15 9
-14 10 3 4 29 -9 622 -75 678 -75 26 0 47 3 47 8 0 4 -39 27 -87 52 l-86 45
39 7 c21 4 54 7 72 7 39 1 42 15 5 30 -19 7 -55 8 -108 3 -69 -7 -84 -6 -110
10 -30 18 -95 25 -95 10 0 -5 12 -15 28 -22 25 -12 12 -15 -148 -31 -96 -10
-193 -17 -215 -17 l-40 1 45 7 c25 4 35 8 24 8 -12 1 -27 9 -34 17 -6 7 -33
17 -58 20 -185 25 -299 78 -278 130 3 9 -28 30 -98 64 -120 59 -151 62 -266
26z m-247 -112 c-7 -2 -19 -2 -25 0 -7 3 -2 5 12 5 14 0 19 -2 13 -5z m210
-40 c-7 -2 -21 -2 -30 0 -10 3 -4 5 12 5 17 0 24 -2 18 -5z m210 -120 c-7 -2
-19 -2 -25 0 -7 3 -2 5 12 5 14 0 19 -2 13 -5z m1062 -43 c53 -30 63 -39 40
-35 -16 2 -97 12 -180 20 -209 22 -220 27 -90 41 61 6 121 12 135 12 14 1 57
-16 95 -38z m-96 -226 c14 -12 -19 -1 -35 12 -18 14 -18 14 6 3 14 -6 27 -13
29 -15z m-446 -1 c-7 -2 -21 -2 -30 0 -10 3 -4 5 12 5 17 0 24 -2 18 -5z
m1344 -78 c115 -34 86 -70 -56 -69 -123 0 -153 7 -149 37 6 46 106 61 205 32z
m-325 -53 c7 -7 3 -17 -11 -31 -26 -26 -115 -29 -184 -5 -52 18 -66 32 -46 46
18 12 227 4 241 -10z m-188 -62 c34 -10 53 -19 44 -19 -30 -1 -128 40 -156 65
l-27 25 39 -26 c22 -14 67 -34 100 -45z m-411 -27 c-7 -2 -21 -2 -30 0 -10 3
-4 5 12 5 17 0 24 -2 18 -5z m120 -70 c-7 -2 -19 -2 -25 0 -7 3 -2 5 12 5 14
0 19 -2 13 -5z m567 -58 c0 -3 -22 6 -50 20 -27 14 -50 28 -50 30 0 3 23 -6
50 -20 28 -14 50 -28 50 -30z m-483 -11 c-3 -3 -12 -4 -19 -1 -8 3 -5 6 6 6
11 1 17 -2 13 -5z m126 -51 c-7 -2 -19 -2 -25 0 -7 3 -2 5 12 5 14 0 19 -2 13
-5z m84 -69 c-3 -3 -12 -4 -19 -1 -8 3 -5 6 6 6 11 1 17 -2 13 -5z m1085 -34
l73 -40 -50 6 c-27 3 -120 14 -205 23 -169 19 -168 21 24 41 39 4 74 8 78 9 4
0 40 -17 80 -39z m-515 4 c-3 -3 -12 -4 -19 -1 -8 3 -5 6 6 6 11 1 17 -2 13
-5z m71 -11 c-10 -2 -28 -2 -40 0 -13 2 -5 4 17 4 22 1 32 -1 23 -4z m904
-113 c20 -6 47 -19 60 -29 l23 -19 -28 -11 c-31 -12 -175 -15 -226 -5 -24 5
-31 12 -31 30 0 13 8 28 18 33 22 13 137 14 184 1z m-391 -41 c54 -9 69 -16
69 -29 0 -9 -11 -22 -25 -28 -30 -14 -111 -15 -140 -2 -13 6 -4 7 27 3 61 -7
128 4 107 19 -11 8 -11 9 4 4 9 -3 17 -1 17 4 0 18 -209 34 -226 17 -5 -4 -2
-12 6 -17 8 -6 10 -10 4 -10 -6 0 -17 6 -23 14 -10 11 -6 16 16 24 38 14 81
14 164 1z m-230 -26 c13 -16 12 -17 -3 -4 -17 13 -22 21 -14 21 2 0 10 -8 17
-17z m44 -31 c-3 -3 -11 0 -18 7 -9 10 -8 11 6 5 10 -3 15 -9 12 -12z m144
-38 c9 -8 -45 -2 -64 6 -14 7 -8 8 20 3 22 -3 42 -7 44 -9z m-476 -11 c-7 -2
-19 -2 -25 0 -7 3 -2 5 12 5 14 0 19 -2 13 -5z m545 0 c-10 -2 -28 -2 -40 0
-13 2 -5 4 17 4 22 1 32 -1 23 -4z m209 -108 c0 -8 -4 -12 -9 -9 -4 3 -8 9 -8
15 0 5 4 9 8 9 5 0 9 -7 9 -15z m67 -30 c27 -8 68 -15 91 -15 29 0 47 -6 56
-17 12 -16 12 -17 -1 -7 -8 6 -42 14 -75 17 -33 2 -76 12 -95 20 -45 20 -37
20 24 2z m-37 -31 c-3 -3 -12 -4 -19 -1 -8 3 -5 6 6 6 11 1 17 -2 13 -5z m46
-11 c-7 -2 -19 -2 -25 0 -7 3 -2 5 12 5 14 0 19 -2 13 -5z m95 -10 c-16 -2
-40 -2 -55 0 -16 2 -3 4 27 4 30 0 43 -2 28 -4z m105 -90 c-7 -2 -21 -2 -30 0
-10 3 -4 5 12 5 17 0 24 -2 18 -5z m-10 -30 c-7 -2 -19 -2 -25 0 -7 3 -2 5 12
5 14 0 19 -2 13 -5z m74 -19 c-3 -3 -12 -4 -19 -1 -8 3 -5 6 6 6 11 1 17 -2
13 -5z m70 -20 c-3 -3 -12 -4 -19 -1 -8 3 -5 6 6 6 11 1 17 -2 13 -5z m40 -10
c-3 -3 -12 -4 -19 -1 -8 3 -5 6 6 6 11 1 17 -2 13 -5z m-370 -80 c-3 -3 -12
-4 -19 -1 -8 3 -5 6 6 6 11 1 17 -2 13 -5z m716 -81 c-7 -2 -19 -2 -25 0 -7 3
-2 5 12 5 14 0 19 -2 13 -5z m160 -22 c17 -17 -6 -33 -39 -28 -29 4 -28 4 4 6
57 2 34 19 -40 29 l-73 11 68 -3 c38 -2 74 -9 80 -15z m-190 -8 c-7 -2 -21 -2
-30 0 -10 3 -4 5 12 5 17 0 24 -2 18 -5z m75 -10 c-10 -2 -26 -2 -35 0 -10 3
-2 5 17 5 19 0 27 -2 18 -5z m30 -40 c-10 -2 -26 -2 -35 0 -10 3 -2 5 17 5 19
0 27 -2 18 -5z m122 -28 c28 -14 50 -28 50 -30 0 -5 -99 42 -109 51 -12 11 15
1 59 -21z m-143 -1 c-3 -3 -12 -4 -19 -1 -8 3 -5 6 6 6 11 1 17 -2 13 -5z m38
-14 c3 -6 -1 -7 -9 -4 -18 7 -21 14 -7 14 6 0 13 -4 16 -10z m233 -77 c-15 -2
-42 -2 -60 0 -18 2 -6 4 27 4 33 0 48 -2 33 -4z m170 -10 c-21 -2 -57 -2 -80
0 -24 2 -7 4 37 4 44 0 63 -2 43 -4z m57 -93 c3 -6 -1 -7 -9 -4 -18 7 -21 14
-7 14 6 0 13 -4 16 -10z m145 -78 c-9 -3 -90 35 -90 43 0 2 22 -6 49 -18 27
-12 45 -23 41 -25z m68 -9 c-10 -2 -26 -2 -35 0 -10 3 -2 5 17 5 19 0 27 -2
18 -5z m-25 -30 c-18 -2 -48 -2 -65 0 -18 2 -4 4 32 4 36 0 50 -2 33 -4z m116
-16 c-2 -2 -17 -11 -34 -21 l-30 -17 24 20 c13 12 28 21 34 21 6 0 8 -1 6 -3z
m624 -26 c34 -18 34 -29 1 -41 -43 -17 -220 -40 -286 -38 l-63 1 59 6 59 6
-44 19 c-24 10 -52 25 -61 33 -13 11 -35 14 -95 10 l-78 -6 80 14 c106 18 389
15 428 -4z m-520 -18 c-7 -2 -19 -2 -25 0 -7 3 -2 5 12 5 14 0 19 -2 13 -5z
m-46 -9 c-3 -3 -12 -4 -19 -1 -8 3 -5 6 6 6 11 1 17 -2 13 -5z m-42 -14 c-3
-5 -1 -10 6 -10 7 0 10 -3 6 -6 -9 -9 -28 6 -22 17 4 5 8 9 11 9 3 0 2 -4 -1
-10z m93 -37 c-10 -2 -26 -2 -35 0 -10 3 -2 5 17 5 19 0 27 -2 18 -5z m130
-10 c-16 -2 -40 -2 -55 0 -16 2 -3 4 27 4 30 0 43 -2 28 -4z m-55 -40 c-7 -2
-19 -2 -25 0 -7 3 -2 5 12 5 14 0 19 -2 13 -5z m215 -60 c-10 -2 -26 -2 -35 0
-10 3 -2 5 17 5 19 0 27 -2 18 -5z m413 -49 c38 -20 69 -37 69 -38 0 -2 -24 0
-52 4 -29 5 -102 13 -163 20 -60 7 -132 16 -160 20 l-50 8 41 1 c22 0 85 -6
140 -14 103 -15 172 -19 161 -9 -6 6 -39 11 -152 21 -70 7 -70 7 -25 13 95 14
119 11 191 -26z m-494 0 c-3 -3 -12 -4 -19 -1 -8 3 -5 6 6 6 11 1 17 -2 13 -5z
m76 -11 c-7 -2 -19 -2 -25 0 -7 3 -2 5 12 5 14 0 19 -2 13 -5z m100 -10 c-7
-2 -21 -2 -30 0 -10 3 -4 5 12 5 17 0 24 -2 18 -5z m90 -10 c-13 -2 -33 -2
-45 0 -13 2 -3 4 22 4 25 0 35 -2 23 -4z m85 -10 c-10 -2 -28 -2 -40 0 -13 2
-5 4 17 4 22 1 32 -1 23 -4z m100 -80 c-10 -2 -26 -2 -35 0 -10 3 -2 5 17 5
19 0 27 -2 18 -5z m-71 -9 c-3 -3 -12 -4 -19 -1 -8 3 -5 6 6 6 11 1 17 -2 13
-5z m183 -4 c17 -6 9 -7 -25 -3 -27 3 -52 7 -54 9 -8 7 54 2 79 -6z m-7 -37
c-18 -2 -48 -2 -65 0 -18 2 -4 4 32 4 36 0 50 -2 33 -4z m-109 -19 c3 -8 2
-12 -4 -9 -6 3 -10 10 -10 16 0 14 7 11 14 -7z m179 9 c-7 -2 -19 -2 -25 0 -7
3 -2 5 12 5 14 0 19 -2 13 -5z m87 -18 c23 -8 47 -12 54 -8 7 4 8 2 1 -5 -8
-8 -27 -6 -70 8 -33 10 -53 19 -44 19 9 1 36 -6 59 -14z m-82 -42 c-10 -2 -28
-2 -40 0 -13 2 -5 4 17 4 22 1 32 -1 23 -4z m-10 -30 c-10 -2 -28 -2 -40 0
-13 2 -5 4 17 4 22 1 32 -1 23 -4z m-1 -39 c-3 -3 -12 -4 -19 -1 -8 3 -5 6 6
6 11 1 17 -2 13 -5z m322 -91 c2 -2 -18 -2 -45 -1 -38 1 -41 2 -16 5 34 4 34
5 15 26 -15 18 -13 18 12 -3 17 -14 32 -26 34 -27z m-111 -830 c-10 -2 -26 -2
-35 0 -10 3 -2 5 17 5 19 0 27 -2 18 -5z"/>
<path d="M3135 3310 c-8 -13 91 -40 144 -39 25 1 37 4 26 6 -11 3 -31 10 -45
16 l-25 10 30 7 c21 6 8 8 -47 9 -42 0 -79 -3 -83 -9z"/>
<path d="M6948 1463 c7 -3 16 -2 19 1 4 3 -2 6 -13 5 -11 0 -14 -3 -6 -6z"/>
<path d="M2192 3949 c-87 -9 -162 -39 -162 -63 0 -59 148 -105 338 -106 122 0
179 12 197 40 12 20 -27 49 -101 75 l-69 24 65 -5 c116 -9 263 -35 339 -60 83
-28 107 -24 39 6 -154 68 -452 109 -646 89z m209 -55 c110 -32 95 -60 -39 -73
-43 -5 -104 -6 -137 -4 -59 4 -135 29 -135 44 0 17 125 45 216 48 22 0 65 -6
95 -15z"/>
<path d="M2110 3861 c0 -12 39 -25 47 -17 4 3 -1 6 -11 6 -9 0 -14 5 -11 10 3
6 -1 10 -9 10 -9 0 -16 -4 -16 -9z"/>
<path d="M2183 3833 c9 -2 25 -2 35 0 9 3 1 5 -18 5 -19 0 -27 -2 -17 -5z"/>
<path d="M2877 3469 c23 -11 63 -21 90 -24 26 -2 39 -2 28 1 -86 21 -105 28
-105 35 0 5 -12 9 -27 8 -26 -1 -25 -2 14 -20z"/>
<path d="M3540 3125 c0 -13 106 -56 148 -60 26 -2 39 -2 30 1 -10 3 -38 16
-64 29 l-47 24 44 4 c28 2 16 4 -33 5 -43 1 -78 0 -78 -3z"/>
<path d="M4133 2873 c9 -2 25 -2 35 0 9 3 1 5 -18 5 -19 0 -27 -2 -17 -5z"/>
<path d="M4623 2623 c9 -2 23 -2 30 0 6 3 -1 5 -18 5 -16 0 -22 -2 -12 -5z"/>
<path d="M6388 1753 c6 -2 18 -2 25 0 6 3 1 5 -13 5 -14 0 -19 -2 -12 -5z"/>
<path d="M7662 965 c-73 -16 -94 -30 -90 -59 10 -65 305 -120 458 -85 104 24
83 63 -60 110 l-55 18 95 -5 c112 -7 270 -36 340 -64 28 -11 50 -16 50 -11 0
12 -131 55 -245 81 -121 28 -401 36 -493 15z m311 -52 c87 -38 16 -68 -163
-68 -102 0 -131 3 -158 18 -18 10 -32 24 -29 30 5 18 68 36 155 45 82 8 134 2
195 -25z"/>
<path d="M8260 792 c-22 -11 -36 -25 -38 -40 -3 -16 -8 -21 -20 -18 -84 26
-243 37 -286 20 -44 -17 18 -73 113 -101 36 -11 92 -17 154 -18 97 0 99 1 123
29 l25 29 77 -14 c42 -8 109 -13 147 -13 123 2 149 38 60 86 -101 55 -284 76
-355 40z m321 -38 c41 -21 36 -41 -13 -55 -43 -11 -187 -8 -220 6 -21 8 -24
50 -5 62 38 24 182 17 238 -13z m-418 -25 c56 -12 65 -21 48 -48 -12 -19 -82
-29 -139 -20 -59 9 -122 34 -122 49 0 29 113 39 213 19z"/>
<path d="M8541 595 c-24 -11 -31 -19 -27 -31 5 -14 1 -16 -26 -10 -176 36
-292 -3 -178 -60 54 -27 183 -55 242 -52 40 1 41 1 8 5 -64 8 -164 34 -188 49
-68 45 77 60 226 24 103 -25 105 -25 65 0 -72 44 -13 76 126 67 102 -6 166
-29 184 -66 10 -21 20 -27 55 -29 26 -2 42 1 42 8 0 18 -141 78 -220 95 -92
19 -264 19 -309 0z"/>
<path d="M9070 437 c52 -12 226 -95 217 -103 -2 -2 -27 0 -55 6 -86 16 -322
48 -409 56 -200 16 -288 -37 -155 -94 58 -25 205 -53 271 -51 l46 2 -60 9
c-118 17 -164 29 -190 50 -24 19 -25 22 -11 36 32 32 185 28 455 -12 135 -20
249 -36 255 -36 6 0 -50 33 -124 72 -131 69 -137 72 -215 75 l-80 3 55 -13z"/>
<path d="M7613 131 c-413 -42 -754 -79 -758 -82 -3 -4 8 -12 24 -18 24 -11
153 0 787 63 418 42 775 79 794 82 l35 6 -25 14 c-14 7 -43 13 -65 13 -22 -1
-378 -36 -792 -78z"/>
</g>
</svg>
